<svg width="16" height="16" viewBox="0 0 16 16" fill="none" xmlns="http://www.w3.org/2000/svg">
<path d="M7.60065 15.168H5.06732C2.14065 15.168 0.833984 13.8613 0.833984 10.9346V8.4013C0.833984 5.47464 2.14065 4.16797 5.06732 4.16797H7.06732C7.34065 4.16797 7.56732 4.39464 7.56732 4.66797C7.56732 4.9413 7.34065 5.16797 7.06732 5.16797H5.06732C2.68065 5.16797 1.83398 6.01464 1.83398 8.4013V10.9346C1.83398 13.3213 2.68065 14.168 5.06732 14.168H7.60065C9.98732 14.168 10.834 13.3213 10.834 10.9346V8.93464C10.834 8.6613 11.0607 8.43464 11.334 8.43464C11.6073 8.43464 11.834 8.6613 11.834 8.93464V10.9346C11.834 13.8613 10.5273 15.168 7.60065 15.168Z" fill="#0D99FF"/>
<path d="M11.3331 9.43365H9.19974C7.32641 9.43365 6.56641 8.67365 6.56641 6.80032V4.66698C6.56641 4.46698 6.68641 4.28032 6.87307 4.20698C7.05974 4.12698 7.27307 4.17365 7.41974 4.31365L11.6864 8.58032C11.8264 8.72032 11.8731 8.94032 11.7931 9.12698C11.7197 9.31365 11.5331 9.43365 11.3331 9.43365ZM7.56641 5.87365V6.80032C7.56641 8.12698 7.87307 8.43365 9.19974 8.43365H10.1264L7.56641 5.87365Z" fill="#0D99FF"/>
<path d="M10.3991 1.83203H7.73242C7.45909 1.83203 7.23242 1.60536 7.23242 1.33203C7.23242 1.0587 7.45909 0.832031 7.73242 0.832031H10.3991C10.6724 0.832031 10.8991 1.0587 10.8991 1.33203C10.8991 1.60536 10.6724 1.83203 10.3991 1.83203Z" fill="#0D99FF"/>
<path d="M4.66602 3.83203C4.39268 3.83203 4.16602 3.60536 4.16602 3.33203C4.16602 1.95203 5.28602 0.832031 6.66602 0.832031H8.41268C8.68602 0.832031 8.91268 1.0587 8.91268 1.33203C8.91268 1.60536 8.68602 1.83203 8.41268 1.83203H6.66602C5.83935 1.83203 5.16602 2.50536 5.16602 3.33203C5.16602 3.60536 4.93935 3.83203 4.66602 3.83203Z" fill="#0D99FF"/>
<path d="M12.793 11.832C12.5196 11.832 12.293 11.6054 12.293 11.332C12.293 11.0587 12.5196 10.832 12.793 10.832C13.553 10.832 14.1663 10.212 14.1663 9.4587V5.33203C14.1663 5.0587 14.393 4.83203 14.6663 4.83203C14.9396 4.83203 15.1663 5.0587 15.1663 5.33203V9.4587C15.1663 10.7654 14.0996 11.832 12.793 11.832Z" fill="#0D99FF"/>
<path d="M14.666 5.83495H12.666C10.8927 5.83495 10.166 5.10829 10.166 3.33495V1.33495C10.166 1.13495 10.286 0.948287 10.4727 0.874953C10.6593 0.794953 10.8727 0.84162 11.0193 0.98162L15.0193 4.98162C15.1593 5.12162 15.206 5.34162 15.126 5.52829C15.0527 5.71495 14.866 5.83495 14.666 5.83495ZM11.166 2.54162V3.33495C11.166 4.55495 11.446 4.83495 12.666 4.83495H13.4593L11.166 2.54162Z" fill="#0D99FF"/>
</svg>
