<svg width="105" height="42" viewBox="0 0 105 42" fill="none" xmlns="http://www.w3.org/2000/svg">
    <g clip-path="url(#clip0_5274_102059)">

        <path
            d="M10.5141 35C12.4548 35 14.0281 28.732 14.0281 21C14.0281 13.268 12.4548 7 10.5141 7C8.5733 7 7 13.268 7 21C7 28.732 8.5733 35 10.5141 35Z"
            fill="url(#paint2_linear_5274_102059)" />
        <path
            d="M17.5414 35C19.4822 35 21.0555 28.732 21.0555 21C21.0555 13.268 19.4822 7 17.5414 7C15.6006 7 14.0273 13.268 14.0273 21C14.0273 28.732 15.6006 35 17.5414 35Z"
            fill="url(#paint3_linear_5274_102059)" />
        <path
            d="M35.3106 17.1103H34.6L31.7419 12.7936V17.1103H31.0312V11.6814H31.7419L34.6 15.9903V11.6814H35.3106V17.1103ZM40.2235 15.0181C40.2235 15.3654 40.1766 15.674 40.0829 15.9436C39.9944 16.2081 39.8643 16.4336 39.6925 16.6203C39.5258 16.807 39.3203 16.9496 39.0755 17.0481C38.8361 17.1414 38.568 17.1881 38.2712 17.1881C37.9953 17.1881 37.7402 17.1414 37.5059 17.0481C37.2717 16.9496 37.0686 16.807 36.8968 16.6203C36.725 16.4336 36.5896 16.2081 36.4907 15.9436C36.397 15.674 36.3502 15.3654 36.3502 15.0181C36.3502 14.5566 36.4283 14.1677 36.5845 13.8514C36.7406 13.5299 36.9645 13.2863 37.256 13.1203C37.5476 12.9492 37.8937 12.8636 38.2946 12.8636C38.6746 12.8636 39.0079 12.9492 39.2942 13.1203C39.5858 13.2863 39.8122 13.5299 39.9736 13.8514C40.1402 14.1677 40.2235 14.5566 40.2235 15.0181ZM37.0608 15.0181C37.0608 15.3447 37.1025 15.6299 37.1858 15.8736C37.2743 16.1121 37.4096 16.2963 37.5918 16.4259C37.7741 16.5554 38.0057 16.6203 38.2868 16.6203C38.568 16.6203 38.7996 16.5554 38.9818 16.4259C39.1641 16.2963 39.2968 16.1121 39.3801 15.8736C39.4686 15.6299 39.5128 15.3447 39.5128 15.0181C39.5128 14.6863 39.4686 14.4036 39.3801 14.1703C39.2916 13.937 39.1563 13.7581 38.974 13.6336C38.7971 13.504 38.5653 13.4392 38.279 13.4392C37.8522 13.4392 37.5423 13.5792 37.3497 13.8592C37.1572 14.1392 37.0608 14.5254 37.0608 15.0181ZM44.1257 13.517H42.7591V17.1103H42.0797V13.517H40.7287V12.9414H44.1257V13.517ZM49.695 14.3181C49.8928 14.3492 50.0724 14.4296 50.2338 14.5592C50.4004 14.6888 50.5305 14.8496 50.6242 15.0414C50.7232 15.2332 50.7726 15.4381 50.7726 15.6558C50.7726 15.9307 50.7023 16.1796 50.5618 16.4025C50.4212 16.6203 50.2156 16.794 49.9449 16.9236C49.6793 17.0481 49.3644 17.1103 49 17.1103H46.9696V11.6892H48.9219C49.2915 11.6892 49.6065 11.7514 49.8668 11.8759C50.1271 11.9951 50.3223 12.1585 50.4524 12.3659C50.5827 12.5732 50.6477 12.8066 50.6477 13.0659C50.6477 13.3874 50.5592 13.6543 50.3822 13.867C50.2104 14.0743 49.9814 14.2247 49.695 14.3181ZM47.6802 14.0303H48.875C49.2083 14.0303 49.466 13.9525 49.6481 13.797C49.8304 13.6414 49.9214 13.4263 49.9214 13.1514C49.9214 12.8766 49.8304 12.6614 49.6481 12.5059C49.466 12.3503 49.203 12.2725 48.8594 12.2725H47.6802V14.0303ZM48.9375 16.527C49.2915 16.527 49.5675 16.444 49.7652 16.2781C49.9631 16.1121 50.062 15.8814 50.062 15.5859C50.062 15.2851 49.9579 15.0492 49.7496 14.8781C49.5414 14.7018 49.2629 14.6136 48.9141 14.6136H47.6802V16.527H48.9375ZM53.6252 17.1803C53.2243 17.1803 52.8599 17.0896 52.5319 16.9081C52.2091 16.7266 51.954 16.4699 51.7666 16.1381C51.5844 15.801 51.4933 15.4121 51.4933 14.9714C51.4933 14.5359 51.587 14.1521 51.7744 13.8203C51.967 13.4832 52.2273 13.2266 52.5553 13.0503C52.8833 12.8688 53.2503 12.7781 53.6564 12.7781C54.0625 12.7781 54.4295 12.8688 54.7575 13.0503C55.0855 13.2266 55.3431 13.4807 55.5306 13.8125C55.7232 14.1443 55.8195 14.5307 55.8195 14.9714C55.8195 15.4121 55.7205 15.801 55.5228 16.1381C55.3301 16.4699 55.0672 16.7266 54.734 16.9081C54.4008 17.0896 54.0312 17.1803 53.6252 17.1803ZM53.6252 16.5581C53.8802 16.5581 54.1197 16.4985 54.3436 16.3792C54.5674 16.2599 54.747 16.081 54.8824 15.8425C55.023 15.604 55.0933 15.3136 55.0933 14.9714C55.0933 14.6292 55.0255 14.3388 54.8902 14.1003C54.7548 13.8618 54.5779 13.6854 54.3592 13.5714C54.1406 13.4521 53.9037 13.3925 53.6486 13.3925C53.3883 13.3925 53.1488 13.4521 52.9302 13.5714C52.7167 13.6854 52.5449 13.8618 52.4148 14.1003C52.2845 14.3388 52.2195 14.6292 52.2195 14.9714C52.2195 15.3188 52.282 15.6118 52.4069 15.8503C52.5371 16.0888 52.7089 16.2677 52.9223 16.387C53.1357 16.501 53.37 16.5581 53.6252 16.5581ZM57.4645 13.5403C57.5894 13.2966 57.7664 13.1074 57.9955 12.9725C58.2298 12.8377 58.5134 12.7703 58.8467 12.7703V13.5014H58.6593C57.8627 13.5014 57.4645 13.9318 57.4645 14.7925V17.1103H56.7539V12.8481H57.4645V13.5403ZM60.0339 12.1559C59.8987 12.1559 59.7841 12.1092 59.6903 12.0159C59.5966 11.9225 59.5498 11.8085 59.5498 11.6736C59.5498 11.5388 59.5966 11.4247 59.6903 11.3314C59.7841 11.2381 59.8987 11.1914 60.0339 11.1914C60.1642 11.1914 60.2735 11.2381 60.3619 11.3314C60.4556 11.4247 60.5025 11.5388 60.5025 11.6736C60.5025 11.8085 60.4556 11.9225 60.3619 12.0159C60.2735 12.1092 60.1642 12.1559 60.0339 12.1559ZM60.3775 12.8481V17.1103H59.6669V12.8481H60.3775ZM63.6737 12.7703C64.1943 12.7703 64.616 12.9285 64.9388 13.2447C65.2616 13.5559 65.423 14.007 65.423 14.5981V17.1103H64.7202V14.6992C64.7202 14.274 64.6135 13.9499 64.4 13.727C64.1865 13.4988 63.895 13.3847 63.5254 13.3847C63.1505 13.3847 62.8512 13.5014 62.6273 13.7347C62.4087 13.9681 62.2994 14.3077 62.2994 14.7536V17.1103H61.5887V12.8481H62.2994V13.4547C62.4399 13.237 62.63 13.0685 62.8694 12.9492C63.1141 12.8299 63.3822 12.7703 63.6737 12.7703ZM68.3486 12.7781C68.7182 12.7781 69.041 12.8585 69.317 13.0192C69.5981 13.1799 69.8063 13.3821 69.9417 13.6259V12.8481H70.6601V17.2036C70.6601 17.5925 70.5767 17.9374 70.4102 18.2381C70.2436 18.544 70.0041 18.7825 69.6918 18.9536C69.3846 19.1247 69.0254 19.2103 68.6141 19.2103C68.0519 19.2103 67.5833 19.0781 67.2085 18.8136C66.8337 18.5492 66.6124 18.1888 66.5447 17.7325H67.2476C67.3256 17.9918 67.487 18.1992 67.7317 18.3547C67.9763 18.5154 68.2705 18.5959 68.6141 18.5959C69.0046 18.5959 69.3221 18.474 69.5668 18.2303C69.8167 17.9866 69.9417 17.6443 69.9417 17.2036V16.3092C69.8011 16.5581 69.5928 16.7654 69.317 16.9314C69.041 17.0974 68.7182 17.1803 68.3486 17.1803C67.9685 17.1803 67.6224 17.087 67.31 16.9003C67.0028 16.7136 66.7608 16.4518 66.5838 16.1147C66.4067 15.7777 66.3183 15.394 66.3183 14.9636C66.3183 14.5281 66.4067 14.147 66.5838 13.8203C66.7608 13.4885 67.0028 13.2318 67.31 13.0503C67.6224 12.8688 67.9685 12.7781 68.3486 12.7781ZM69.9417 14.9714C69.9417 14.6499 69.8766 14.3699 69.7464 14.1314C69.6162 13.8929 69.4393 13.7114 69.2154 13.587C68.9968 13.4574 68.7547 13.3925 68.4892 13.3925C68.2237 13.3925 67.9816 13.4547 67.7629 13.5792C67.5443 13.7036 67.3699 13.8851 67.2397 14.1236C67.1095 14.3621 67.0445 14.6421 67.0445 14.9636C67.0445 15.2903 67.1095 15.5754 67.2397 15.8192C67.3699 16.0577 67.5443 16.2418 67.7629 16.3714C67.9816 16.4958 68.2237 16.5581 68.4892 16.5581C68.7547 16.5581 68.9968 16.4958 69.2154 16.3714C69.4393 16.2418 69.6162 16.0577 69.7464 15.8192C69.8766 15.5754 69.9417 15.2929 69.9417 14.9714Z"
            fill="#081015" />
        <path
            d="M30.625 25.4427C30.625 24.5882 30.8166 23.8249 31.1997 23.1529C31.5913 22.4726 32.1201 21.9458 32.7865 21.5724C33.4612 21.1908 34.2151 21 35.048 21C36.0226 21 36.8764 21.2489 37.6094 21.7467C38.3424 22.2444 38.8547 22.9331 39.1462 23.8124H37.1346C36.9347 23.3976 36.6515 23.0865 36.285 22.8791C35.9269 22.6717 35.5103 22.568 35.0355 22.568C34.5275 22.568 34.0735 22.6883 33.6737 22.9289C33.2821 23.1612 32.974 23.4931 32.7491 23.9244C32.5325 24.3558 32.4242 24.862 32.4242 25.4427C32.4242 26.0151 32.5325 26.5212 32.7491 26.9609C32.974 27.3923 33.2821 27.7283 33.6737 27.9689C34.0735 28.2012 34.5275 28.3173 35.0355 28.3173C35.5103 28.3173 35.9269 28.2136 36.285 28.0062C36.6515 27.7905 36.9347 27.4753 37.1346 27.0604H39.1462C38.8547 27.9482 38.3424 28.6409 37.6094 29.1387C36.8847 29.6282 36.0309 29.8729 35.048 29.8729C34.2151 29.8729 33.4612 29.6862 32.7865 29.3129C32.1201 28.9313 31.5913 28.4044 31.1997 27.7324C30.8166 27.0604 30.625 26.2972 30.625 25.4427ZM42.3895 23.9742C42.6144 23.6092 42.906 23.3229 43.2641 23.1156C43.6307 22.9082 44.0471 22.8044 44.5136 22.8044V24.6338H44.0513C43.5015 24.6338 43.085 24.7624 42.8018 25.0196C42.527 25.2767 42.3895 25.7247 42.3895 26.3636V29.7982H40.6403V22.904H42.3895V23.9742ZM52.3138 22.904L48.0282 33.0587H46.1666L47.6659 29.624L44.8921 22.904H46.8538L48.6405 27.72L50.4522 22.904H52.3138ZM55.006 23.8996C55.2309 23.5843 55.5391 23.3229 55.9306 23.1156C56.3304 22.8998 56.7844 22.792 57.2925 22.792C57.8839 22.792 58.417 22.9372 58.8918 23.2276C59.3749 23.518 59.7539 23.9327 60.0288 24.472C60.312 25.0029 60.4536 25.6211 60.4536 26.3262C60.4536 27.0314 60.312 27.6578 60.0288 28.2053C59.7539 28.7446 59.3749 29.1636 58.8918 29.4622C58.417 29.7609 57.8839 29.9102 57.2925 29.9102C56.7844 29.9102 56.3346 29.8065 55.9431 29.5991C55.56 29.3917 55.2476 29.1304 55.006 28.8151V33.0836H53.2568V22.904H55.006V23.8996ZM58.6669 26.3262C58.6669 25.9114 58.5794 25.5547 58.4045 25.256C58.2379 24.9491 58.013 24.7167 57.7298 24.5591C57.4549 24.4015 57.1551 24.3227 56.8302 24.3227C56.5136 24.3227 56.2138 24.4056 55.9306 24.5716C55.6557 24.7292 55.4308 24.9615 55.2559 25.2684C55.0893 25.5754 55.006 25.9363 55.006 26.3511C55.006 26.766 55.0893 27.1268 55.2559 27.4338C55.4308 27.7407 55.6557 27.9772 55.9306 28.1431C56.2138 28.3007 56.5136 28.3796 56.8302 28.3796C57.1551 28.3796 57.4549 28.2966 57.7298 28.1307C58.013 27.9647 58.2379 27.7283 58.4045 27.4213C58.5794 27.1144 58.6669 26.7493 58.6669 26.3262ZM63.7613 24.3351V27.6702C63.7613 27.9025 63.8155 28.0726 63.9237 28.1804C64.0404 28.28 64.2319 28.3298 64.4985 28.3298H65.3106V29.7982H64.2111C62.7368 29.7982 61.9996 29.0847 61.9996 27.6578V24.3351H61.175V22.904H61.9996V21.1991H63.7613V22.904H65.3106V24.3351H63.7613ZM69.6424 29.9102C68.976 29.9102 68.3763 29.7651 67.8432 29.4747C67.3101 29.176 66.8894 28.7571 66.5813 28.2178C66.2814 27.6785 66.1315 27.0563 66.1315 26.3511C66.1315 25.646 66.2856 25.0237 66.5938 24.4844C66.9103 23.9452 67.3392 23.5304 67.8807 23.24C68.4221 22.9413 69.026 22.792 69.6924 22.792C70.3588 22.792 70.9626 22.9413 71.5041 23.24C72.0455 23.5304 72.4704 23.9452 72.7785 24.4844C73.0951 25.0237 73.2533 25.646 73.2533 26.3511C73.2533 27.0563 73.0909 27.6785 72.766 28.2178C72.4495 28.7571 72.0164 29.176 71.4666 29.4747C70.9251 29.7651 70.3171 29.9102 69.6424 29.9102ZM69.6424 28.392C69.959 28.392 70.2546 28.3173 70.5295 28.168C70.8127 28.0104 71.0376 27.778 71.2042 27.4711C71.3708 27.1642 71.4541 26.7908 71.4541 26.3511C71.4541 25.6957 71.2792 25.1938 70.9293 24.8453C70.5878 24.4886 70.1672 24.3102 69.6674 24.3102C69.1676 24.3102 68.747 24.4886 68.4055 24.8453C68.0723 25.1938 67.9057 25.6957 67.9057 26.3511C67.9057 27.0065 68.0681 27.5126 68.393 27.8693C68.7261 28.2178 69.1426 28.392 69.6424 28.392ZM80.6087 23.7253C80.4088 23.3603 80.134 23.0824 79.7841 22.8916C79.4343 22.7007 79.0261 22.6053 78.5596 22.6053C78.0432 22.6053 77.5851 22.7215 77.1853 22.9538C76.7854 23.186 76.4731 23.518 76.2482 23.9493C76.0233 24.3807 75.9108 24.8785 75.9108 25.4427C75.9108 26.0234 76.0233 26.5295 76.2482 26.9609C76.4814 27.3923 76.8021 27.7242 77.2102 27.9564C77.6184 28.1887 78.0932 28.3049 78.6346 28.3049C79.301 28.3049 79.8466 28.1307 80.2714 27.7822C80.6962 27.4255 80.9753 26.9318 81.1085 26.3013H78.1098V24.9698H82.8328V26.488C82.7161 27.0936 82.4662 27.6536 82.0831 28.168C81.7 28.6824 81.2043 29.0972 80.5962 29.4124C79.9965 29.7194 79.3218 29.8729 78.5721 29.8729C77.7308 29.8729 76.9687 29.6862 76.2857 29.3129C75.611 28.9313 75.0779 28.4044 74.6864 27.7324C74.3032 27.0604 74.1116 26.2972 74.1116 25.4427C74.1116 24.5882 74.3032 23.8249 74.6864 23.1529C75.0779 22.4726 75.611 21.9458 76.2857 21.5724C76.9687 21.1908 77.7267 21 78.5596 21C79.5425 21 80.3963 21.2406 81.121 21.7218C81.8457 22.1947 82.3455 22.8625 82.6203 23.7253H80.6087ZM83.6771 26.3262C83.6771 25.6293 83.8146 25.0113 84.0894 24.472C84.3726 23.9327 84.7516 23.518 85.2264 23.2276C85.7095 22.9372 86.2468 22.792 86.8382 22.792C87.3547 22.792 87.8045 22.8957 88.1876 23.1031C88.5791 23.3105 88.8915 23.5718 89.1247 23.8871V22.904H90.8864V29.7982H89.1247V28.7902C88.8998 29.1138 88.5874 29.3834 88.1876 29.5991C87.7961 29.8065 87.3422 29.9102 86.8257 29.9102C86.2427 29.9102 85.7095 29.7609 85.2264 29.4622C84.7516 29.1636 84.3726 28.7446 84.0894 28.2053C83.8146 27.6578 83.6771 27.0314 83.6771 26.3262ZM89.1247 26.3511C89.1247 25.928 89.0414 25.5671 88.8748 25.2684C88.7082 24.9615 88.4833 24.7292 88.2001 24.5716C87.9169 24.4056 87.6129 24.3227 87.288 24.3227C86.9632 24.3227 86.6633 24.4015 86.3884 24.5591C86.1135 24.7167 85.8886 24.9491 85.7137 25.256C85.5471 25.5547 85.4638 25.9114 85.4638 26.3262C85.4638 26.7411 85.5471 27.106 85.7137 27.4213C85.8886 27.7283 86.1135 27.9647 86.3884 28.1307C86.6716 28.2966 86.9715 28.3796 87.288 28.3796C87.6129 28.3796 87.9169 28.3007 88.2001 28.1431C88.4833 27.9772 88.7082 27.7449 88.8748 27.4462C89.0414 27.1393 89.1247 26.7742 89.1247 26.3511ZM94.6314 24.3351V27.6702C94.6314 27.9025 94.6856 28.0726 94.7939 28.1804C94.9105 28.28 95.102 28.3298 95.3686 28.3298H96.1808V29.7982H95.0812C93.6069 29.7982 92.8697 29.0847 92.8697 27.6578V24.3351H92.0451V22.904H92.8697V21.1991H94.6314V22.904H96.1808V24.3351H94.6314ZM103.874 26.2018C103.874 26.4507 103.857 26.6747 103.824 26.8738H98.7638C98.8048 27.3716 98.9795 27.7615 99.288 28.0436C99.5964 28.3256 99.9752 28.4667 100.425 28.4667C101.075 28.4667 101.537 28.1887 101.812 27.6329H103.699C103.499 28.2966 103.115 28.8442 102.549 29.2756C101.983 29.6987 101.287 29.9102 100.462 29.9102C99.7965 29.9102 99.1962 29.7651 98.6633 29.4747C98.1391 29.176 97.7263 28.7571 97.4264 28.2178C97.1348 27.6785 96.9891 27.0563 96.9891 26.3511C96.9891 25.6376 97.1348 25.0113 97.4264 24.472C97.718 23.9327 98.1261 23.518 98.6506 23.2276C99.1757 22.9372 99.7799 22.792 100.462 22.792C101.12 22.792 101.708 22.9331 102.224 23.2151C102.749 23.4972 103.153 23.8996 103.437 24.4222C103.727 24.9366 103.874 25.5298 103.874 26.2018ZM102.062 25.704C102.053 25.256 101.891 24.8993 101.575 24.6338C101.258 24.36 100.87 24.2231 100.412 24.2231C99.9791 24.2231 99.613 24.3558 99.3134 24.6213C99.0215 24.8785 98.8429 25.2394 98.7755 25.704H102.062Z"
            fill="#081015" />
    </g>
    <defs>
        <filter id="filter0_f_5274_102059" x="-1" y="-1" width="30.0547" height="44"
            filterUnits="userSpaceOnUse" color-interpolation-filters="sRGB">
            <feFlood flood-opacity="0" result="BackgroundImageFix" />
            <feBlend mode="normal" in="SourceGraphic" in2="BackgroundImageFix" result="shape" />
            <feGaussianBlur stdDeviation="4" result="effect1_foregroundBlur_5274_102059" />
        </filter>
        <linearGradient id="paint0_linear_5274_102059" x1="10.5141" y1="7" x2="10.5141" y2="35"
            gradientUnits="userSpaceOnUse">
            <stop stop-color="#37F5FE" />
            <stop offset="1" stop-color="#219BFF" />
        </linearGradient>
        <linearGradient id="paint1_linear_5274_102059" x1="17.5414" y1="7" x2="17.5414" y2="35"
            gradientUnits="userSpaceOnUse">
            <stop stop-color="#FE0FFF" />
            <stop offset="1" stop-color="#BB00E9" />
        </linearGradient>
        <linearGradient id="paint2_linear_5274_102059" x1="10.5141" y1="7" x2="10.5141" y2="35"
            gradientUnits="userSpaceOnUse">
            <stop stop-color="#37F5FE" />
            <stop offset="1" stop-color="#219BFF" />
        </linearGradient>
        <linearGradient id="paint3_linear_5274_102059" x1="17.5414" y1="7" x2="17.5414" y2="35"
            gradientUnits="userSpaceOnUse">
            <stop stop-color="#FE0FFF" />
            <stop offset="1" stop-color="#BB00E9" />
        </linearGradient>
        <clipPath id="clip0_5274_102059">
            <rect width="103.86" height="40.4444" fill="white"
                transform="translate(0.753906 0.777344)" />
        </clipPath>
    </defs>
</svg>
    